<svg width="1088" height="220" viewBox="0 0 1088 220" fill="none" xmlns="http://www.w3.org/2000/svg">
<path d="M625.327 85.824L642.25 106.926L633.849 106.926L621.141 91.0526L608.432 106.928L600.031 106.928L616.956 85.824L600.056 64.7146L608.397 64.713L621.141 80.6046L633.885 64.7144L642.226 64.716L625.327 85.824Z" fill="white"/>
<path fill-rule="evenodd" clip-rule="evenodd" d="M216.327 23.85V144.111H240.037V100.301H269.244C292.778 100.301 310.302 83.9816 310.302 61.8194C310.302 39.8266 293.467 23.85 270.102 23.85H216.327ZM267.526 80.0309H240.037V44.9835H267.526C278.864 44.9835 286.767 52.1979 286.767 62.5065C286.767 72.8151 278.864 80.0309 267.526 80.0309ZM343.287 16.9798L321.469 23.85V144.111H343.287V16.9798ZM396.371 145.314C407.024 145.314 416.645 141.362 423.86 134.661V144.111H445.678V58.385H423.86V67.8303C416.987 60.9601 407.538 57.0093 397.233 57.0093C374.899 57.0093 354.624 75.5624 354.624 101.16C354.624 126.757 374.553 145.314 396.371 145.314ZM400.151 125.728C386.924 125.728 376.27 115.591 376.27 101.16C376.27 86.7289 386.924 76.5924 400.151 76.5924C413.552 76.5924 424.03 86.7289 424.03 101.16C424.03 115.591 413.552 125.728 400.151 125.728ZM547.384 58.385H524.533L500.136 108.892L475.226 58.385H450.833L487.598 133.286L463.03 182.08H486.739L547.384 58.385ZM125.219 108.464L118.214 97.2817H97.7621L104.778 86.0804H111.24L103.429 73.6103L81.6428 108.464H23.5206L37.5157 86.0804H27.2405L34.2254 74.8792H79.153L72.1628 86.0804H50.7357L43.7308 97.2817H75.4291L103.429 52.4701L138.424 108.464H125.219ZM48.2246 52.4701H94.3104L87.3054 63.6767H41.225L48.2246 52.4701ZM80.1644 3.84792C35.8933 3.84792 0 39.7438 0 84.0163C0 128.301 35.8933 164.181 80.1644 164.181C124.436 164.181 160.333 128.301 160.333 84.0163C160.333 39.7438 124.436 3.84792 80.1644 3.84792Z" fill="#FF4747"/>
<g clip-path="url(#clip0_2624_687)">
<path d="M1084.33 113.667H703.229V170.069H1084.33V113.667Z" fill="#C80000"/>
<path d="M703.229 77.2522V92.7421C703.229 97.3476 705.589 99.1844 711.249 99.1844H742.59V93.0618H715.97C714.916 93.0618 714.385 92.5925 714.385 91.6537V88.1094H742.59V81.9529H714.385V78.4223C714.385 77.4835 714.916 77.0141 715.97 77.0141H742.59V70.8168H711.249C705.589 70.8168 703.229 72.6535 703.229 77.2522ZM1040.99 70.8236V76.9869H1057.08V99.1844H1068.24V76.9869H1084.33V70.8236H1040.99ZM978.292 77.2522V92.7421C978.292 97.3476 980.646 99.1844 986.306 99.1844H1017.65V93.0618H991.034C989.973 93.0618 989.449 92.5925 989.449 91.6537V78.3951C989.449 77.4563 989.973 76.9869 991.034 76.9869H1017.65V70.8168H986.306C980.639 70.8168 978.292 72.6535 978.292 77.2522V77.2522ZM772.005 77.2522V99.1844H783.161V88.0822H811.366V81.9257H783.161V78.3951C783.161 77.4563 783.685 76.9869 784.746 76.9869H811.366V70.8168H780.025C774.365 70.8168 772.005 72.6535 772.005 77.2522V77.2522ZM840.76 77.2522V99.1844H851.917V88.0822H880.121V81.9257H851.917V78.3951C851.917 77.4563 852.448 76.9869 853.502 76.9869H880.121V70.8168H848.781C843.121 70.8168 840.76 72.6535 840.76 77.2522V77.2522ZM909.516 77.2522V92.7421C909.516 97.3476 911.877 99.1844 917.537 99.1844H948.877V93.0618H922.258C921.203 93.0618 920.673 92.5925 920.673 91.6537V88.1094H948.877V81.9529H920.673V78.4223C920.673 77.4835 921.203 77.0141 922.258 77.0141H948.877V70.8168H917.537C911.877 70.8168 909.516 72.6535 909.516 77.2522Z" fill="white"/>
<path d="M855.597 23.0274L859.189 16.8573L862.346 22.2995C869.743 21.533 877.285 20.8822 884.972 20.3471L872.047 0.0203896H846.332L829.468 26.5512C837.958 25.2269 846.668 24.0523 855.597 23.0274Z" fill="white"/>
<path d="M727.072 50.2861L725.997 26.4084L737.099 47.2929C750.548 43.3609 764.855 39.5513 780.032 36.0547L785.161 26.4084L784.78 34.9731C792.29 33.2996 800.014 31.7123 807.95 30.2111V0H776.48L755.576 40.3609L734.671 0H703.208V57.912C710.836 55.3769 718.791 52.8349 727.072 50.2861Z" fill="white"/>
<path d="M931.366 18.7212C931.849 16.0409 936.264 15.4355 940.026 15.3811H992.503V0H938.761C924.856 0 907.168 2.9524 907.168 19.1702C915.082 18.8845 923.148 18.7348 931.366 18.7212Z" fill="white"/>
<path d="M1023.17 18.7212C1023.65 16.0409 1028.07 15.4355 1031.83 15.3811H1084.31V0H1030.6C1016.81 0 999.305 2.89799 998.979 18.7144L1023.17 18.7212Z" fill="white"/>
<path d="M1056.7 23.0481H1031.83H1031.28H999.308C1001.87 35.8373 1017.54 38.3884 1030.24 38.4292H1055.1C1059.08 38.4836 1063.81 39.1503 1063.81 42.2455C1063.81 45.3408 1059.08 46.0211 1055.1 46.0755H1002.65V61.443H1056.36C1070.29 61.443 1088 58.4838 1088 42.2387C1088 26.1298 1070.57 23.1297 1056.7 23.0481Z" fill="white"/>
<path d="M738.268 49.4966L744.615 61.449H766.534L778.364 39.1836C763.983 42.4217 750.704 45.9319 738.268 49.4966Z" fill="white"/>
<path d="M964.883 23.0481H931.434C923.271 23.0481 915.334 23.1638 907.625 23.3951C910.4 35.885 925.904 38.3611 938.495 38.4292H963.353C967.339 38.4836 972.067 39.1503 972.067 42.2455C972.067 45.3408 967.305 46.0211 963.353 46.0755H910.849V61.0416L887.441 24.2114C879.531 24.6649 871.86 25.2137 864.427 25.8577L868.223 32.3747H850.162L853.332 26.9325C844.261 27.8713 835.536 28.9529 827.155 30.1774L807.944 60.4021V33.2455C799.866 34.665 792.1 36.1843 784.644 37.8033L783.583 61.4498H833.243L841.182 47.7558H877.168L885.135 61.4498H964.557C978.489 61.4498 996.19 58.4906 996.19 42.2455C996.19 26.1298 978.768 23.1297 964.883 23.0481Z" fill="white"/>
<path d="M1078.06 99.1838H1077.18V95.8572H1075.88V95.177H1079.36V95.8572H1078.06V99.1838Z" fill="white"/>
<path d="M1083.08 95.1431L1082.05 98.2383L1082.04 98.2315V98.2383L1081.01 95.1431H1079.78V99.1839H1080.61L1080.54 96.041L1081.57 99.1839H1082.52L1083.55 96.041L1083.48 99.1839H1084.31V95.1431H1083.08Z" fill="white"/>
<path d="M703.229 77.2522V92.7421C703.229 97.3476 705.589 99.1844 711.249 99.1844H742.59V93.0618H715.97C714.916 93.0618 714.385 92.5925 714.385 91.6537V88.1094H742.59V81.9529H714.385V78.4223C714.385 77.4835 714.916 77.0141 715.97 77.0141H742.59V70.8168H711.249C705.589 70.8168 703.229 72.6535 703.229 77.2522ZM1040.99 70.8236V76.9869H1057.08V99.1844H1068.24V76.9869H1084.33V70.8236H1040.99ZM978.292 77.2522V92.7421C978.292 97.3476 980.646 99.1844 986.306 99.1844H1017.65V93.0618H991.034C989.973 93.0618 989.449 92.5925 989.449 91.6537V78.3951C989.449 77.4563 989.973 76.9869 991.034 76.9869H1017.65V70.8168H986.306C980.639 70.8168 978.292 72.6535 978.292 77.2522V77.2522ZM772.005 77.2522V99.1844H783.161V88.0822H811.366V81.9257H783.161V78.3951C783.161 77.4563 783.685 76.9869 784.746 76.9869H811.366V70.8168H780.025C774.365 70.8168 772.005 72.6535 772.005 77.2522V77.2522ZM840.76 77.2522V99.1844H851.917V88.0822H880.121V81.9257H851.917V78.3951C851.917 77.4563 852.448 76.9869 853.502 76.9869H880.121V70.8168H848.781C843.121 70.8168 840.76 72.6535 840.76 77.2522V77.2522ZM909.516 77.2522V92.7421C909.516 97.3476 911.877 99.1844 917.537 99.1844H948.877V93.0618H922.258C921.203 93.0618 920.673 92.5925 920.673 91.6537V88.1094H948.877V81.9529H920.673V78.4223C920.673 77.4835 921.203 77.0141 922.258 77.0141H948.877V70.8168H917.537C911.877 70.8168 909.516 72.6535 909.516 77.2522Z" fill="white"/>
<path d="M855.597 23.0274L859.189 16.8573L862.346 22.2995C869.743 21.533 877.285 20.8822 884.972 20.3471L872.047 0.0203896H846.332L829.468 26.5512C837.958 25.2269 846.668 24.0523 855.597 23.0274Z" fill="white"/>
<path d="M727.072 50.2861L725.997 26.4084L737.099 47.2929C750.548 43.3609 764.855 39.5513 780.032 36.0547L785.161 26.4084L784.78 34.9731C792.29 33.2996 800.014 31.7123 807.95 30.2111V0H776.48L755.576 40.3609L734.671 0H703.208V57.912C710.836 55.3769 718.791 52.8349 727.072 50.2861Z" fill="white"/>
<path d="M931.366 18.7212C931.849 16.0409 936.264 15.4355 940.026 15.3811H992.503V0H938.761C924.856 0 907.168 2.9524 907.168 19.1702C915.082 18.8845 923.148 18.7348 931.366 18.7212Z" fill="white"/>
<path d="M1023.17 18.7212C1023.65 16.0409 1028.07 15.4355 1031.83 15.3811H1084.31V0H1030.6C1016.81 0 999.305 2.89799 998.979 18.7144L1023.17 18.7212Z" fill="white"/>
<path d="M703.208 60.2254V61.4499H727.575L727.188 52.7628C718.82 55.2798 710.854 57.8241 703.208 60.2254Z" fill="white"/>
<path d="M1056.7 23.0481H1031.83H1031.28H999.308C1001.87 35.8373 1017.54 38.3884 1030.24 38.4292H1055.1C1059.08 38.4836 1063.81 39.1503 1063.81 42.2455C1063.81 45.3408 1059.08 46.0211 1055.1 46.0755H1002.65V61.443H1056.36C1070.29 61.443 1088 58.4838 1088 42.2387C1088 26.1298 1070.57 23.1297 1056.7 23.0481Z" fill="white"/>
<path d="M738.268 49.4966L744.615 61.449H766.534L778.364 39.1836C763.983 42.4217 750.704 45.9319 738.268 49.4966Z" fill="white"/>
<path d="M964.883 23.0481H931.434C923.271 23.0481 915.334 23.1638 907.625 23.3951C910.4 35.885 925.904 38.3611 938.495 38.4292H963.353C967.339 38.4836 972.067 39.1503 972.067 42.2455C972.067 45.3408 967.305 46.0211 963.353 46.0755H910.849V61.0416L887.441 24.2114C879.531 24.6649 871.86 25.2137 864.427 25.8577L868.223 32.3747H850.162L853.332 26.9325C844.261 27.8713 835.536 28.9529 827.155 30.1774L807.944 60.4021V33.2455C799.866 34.665 792.1 36.1843 784.644 37.8033L783.583 61.4498H833.243L841.182 47.7558H877.168L885.135 61.4498H964.557C978.489 61.4498 996.19 58.4906 996.19 42.2455C996.19 26.1298 978.768 23.1297 964.883 23.0481Z" fill="white"/>
<path d="M726.608 153.458V155.574H717.71V128.165H720.213V153.458H726.608Z" fill="white"/>
<path d="M741.405 130.281V140.818H747.303V142.907H741.412V153.451H747.357V155.567H738.908V128.165H747.351V130.281H741.405Z" fill="white"/>
<path d="M784.72 130.281V140.818H790.604V142.907H784.72V153.451H790.665V155.567H782.23V128.165H790.679V130.281H784.72Z" fill="white"/>
<path d="M802.95 128.165H806.351L813.011 151.023V128.165H815.277V155.574H811.875L805.304 133.546V155.574H802.95V128.165Z" fill="white"/>
<path d="M1057.51 128.165H1060.91L1067.56 151.023V128.165H1069.83V155.574H1066.43L1059.86 133.546V155.574H1057.51V128.165Z" fill="white"/>
<path d="M838.414 132.988V150.744C838.414 154.05 837.734 155.574 834.067 155.574H827.577V128.165H834.094C837.727 128.165 838.414 129.682 838.414 132.988ZM835.911 132.988C835.911 130.873 835.373 130.308 833.557 130.308H830.053V153.485H833.557C835.373 153.485 835.911 152.921 835.911 150.805V132.988Z" fill="white"/>
<path d="M859.782 149.553H853.326L852.612 155.574H850.197L853.564 128.165H859.55L862.911 155.574H860.503L859.782 149.553ZM859.51 147.437L857.469 130.431H855.605L853.564 147.437H859.51Z" fill="white"/>
<path d="M883.557 155.574L881.516 146.519H877.21V155.574H874.707V128.165H881.128C884.761 128.165 885.421 129.682 885.421 132.988V141.832C885.421 143.914 884.849 145.233 883.598 145.914L885.836 155.567L883.557 155.574ZM881.203 144.553C882.564 144.431 882.958 143.744 882.958 141.832V132.934C882.958 130.846 881.72 130.254 879.931 130.254H877.21V144.58L881.203 144.553Z" fill="white"/>
<path d="M907.748 128.165L902.986 144.642V155.574H900.571V144.642L895.844 128.165H898.286L901.687 140.737H901.871L905.272 128.165H907.748Z" fill="white"/>
<path d="M937.851 130.281V140.818H943.742V142.907H937.851V153.451H943.803V155.567H935.354V128.165H943.803V130.281H937.851Z" fill="white"/>
<path d="M966.938 132.988V150.744C966.938 154.05 966.258 155.574 962.584 155.574H956.074V128.165H962.584C966.251 128.165 966.938 129.682 966.938 132.988ZM964.434 132.988C964.434 130.873 963.897 130.308 962.081 130.308H958.577V153.485H962.081C963.897 153.485 964.434 152.921 964.434 150.805V132.988Z" fill="white"/>
<path d="M980.443 128.165H982.947V155.574H980.443V128.165Z" fill="white"/>
<path d="M1007.03 130.281H1002.17V155.574H999.687V130.281H994.836V128.165H1007.05L1007.03 130.281Z" fill="white"/>
<path d="M1018.9 128.165H1021.4V155.574H1018.9V128.165Z" fill="white"/>
<path d="M1040.08 127.892C1037.41 127.892 1034.92 129.028 1034.92 132.654V151.021C1034.92 154.681 1037.41 155.783 1040.08 155.817C1042.75 155.851 1045.26 154.702 1045.26 151.021V132.654C1045.26 129.035 1042.75 127.892 1040.08 127.892ZM1042.74 151.021C1042.74 151.727 1042.46 152.403 1041.96 152.902C1041.46 153.401 1040.79 153.681 1040.08 153.681C1039.37 153.681 1038.7 153.401 1038.2 152.902C1037.7 152.403 1037.42 151.727 1037.42 151.021V132.654C1037.42 131.948 1037.7 131.272 1038.2 130.773C1038.7 130.274 1039.37 129.994 1040.08 129.994C1040.79 129.994 1041.46 130.274 1041.96 130.773C1042.46 131.272 1042.74 131.948 1042.74 132.654V151.021Z" fill="white"/>
<path d="M769.958 136.777V132.695C769.958 129.035 767.468 127.933 764.795 127.933C762.121 127.933 759.632 129.069 759.632 132.695V151.063C759.632 154.723 762.121 155.825 764.795 155.859C767.468 155.893 769.958 154.723 769.958 151.063V140.818H764.951V142.906H767.455V151.022C767.455 151.727 767.175 152.404 766.676 152.903C766.177 153.402 765.5 153.682 764.795 153.682C764.089 153.682 763.413 153.402 762.914 152.903C762.415 152.404 762.135 151.727 762.135 151.022V132.654C762.135 131.949 762.415 131.272 762.914 130.774C763.413 130.275 764.089 129.995 764.795 129.995C765.5 129.995 766.177 130.275 766.676 130.774C767.175 131.272 767.455 131.949 767.455 132.654V136.736L769.958 136.777Z" fill="white"/>
</g>
<defs>
<clipPath id="clip0_2624_687">
<rect width="384.792" height="170.069" fill="white" transform="translate(703.208)"/>
</clipPath>
</defs>
</svg>
